HIERARCHY
ROOT Hips
{
	OFFSET -0.179506 -22.333345 2.821913
	CHANNELS 6 Xposition Yposition Zposition Zrotation Yrotation Xrotation 
	JOINT LeftUpLeg
	{
		OFFSET 6.951974 -9.140623 -0.681533
		CHANNELS 3 Zrotation Yrotation Xrotation
		JOINT LeftLeg
		{
			OFFSET 3.427654 -37.519855 -0.449580
			CHANNELS 3 Zrotation Yrotation Xrotation
			JOINT LeftFoot
			{
				OFFSET -1.359570 -39.796059 -4.369333
				CHANNELS 3 Zrotation Yrotation Xrotation
				JOINT LeftToe
				{
					OFFSET 2.635814 -5.579078 11.928840
					CHANNELS 3 Zrotation Yrotation Xrotation
					End Site
					{
						OFFSET 0.000000 0.000000 0.000000
					}
				}
			}
		}
	}
	JOINT RightUpLeg
	{
		OFFSET -6.767048 -9.052170 -0.431982
		CHANNELS 3 Zrotation Yrotation Xrotation
		JOINT RightLeg
		{
			OFFSET -3.829005 -38.256897 -0.885003
			CHANNELS 3 Zrotation Yrotation Xrotation
			JOINT RightFoot
			{
				OFFSET 1.577377 -39.841461 -4.231180
				CHANNELS 3 Zrotation Yrotation Xrotation
				JOINT RightToe
				{
					OFFSET -2.537174 -4.814398 12.334795
					CHANNELS 3 Zrotation Yrotation Xrotation
					End Site
					{
						OFFSET 0.000000 0.000000 0.000000
					}
				}
			}
		}
	}
	JOINT Spine
	{
		OFFSET -0.253288 10.896323 -2.669631
		CHANNELS 3 Zrotation Yrotation Xrotation
		JOINT Spine1
		{
			OFFSET 0.548704 13.518043 0.109247
			CHANNELS 3 Zrotation Yrotation Xrotation
			JOINT Spine2
			{
				OFFSET 0.145701 5.292222 2.542457
				CHANNELS 3 Zrotation Yrotation Xrotation
				JOINT Neck
				{
					OFFSET -0.277840 21.387037 -4.285703
					CHANNELS 3 Zrotation Yrotation Xrotation
					JOINT Head
					{
						OFFSET 0.515184 6.496960 5.134897
						CHANNELS 3 Zrotation Yrotation Xrotation
						End Site
						{
							OFFSET 0.000000 0.000000 0.000000
						}
					}
				}
				JOINT LeftShoulder
				{
					OFFSET 7.884473 12.174932 -3.408961
					CHANNELS 3 Zrotation Yrotation Xrotation
					JOINT LeftArm
					{
						OFFSET 9.097692 3.046888 -0.886815
						CHANNELS 3 Zrotation Yrotation Xrotation
						JOINT LeftForeArm
						{
							OFFSET 25.961220 -1.277207 -2.745643
							CHANNELS 3 Zrotation Yrotation Xrotation
							JOINT LeftHand
							{
								OFFSET 24.923361 0.898606 -0.117091
								CHANNELS 3 Zrotation Yrotation Xrotation
								End Site
								{
									OFFSET 0.000000 0.000000 0.000000
								}
							}
						}
					}
				}
				JOINT RightShoulder
				{
					OFFSET -8.175920 11.883285 -3.861528
					CHANNELS 3 Zrotation Yrotation Xrotation
					JOINT RightArm
					{
						OFFSET -9.601238 3.255117 -0.914307
						CHANNELS 3 Zrotation Yrotation Xrotation
						JOINT RightForeArm
						{
							OFFSET -25.374195 -1.332924 -2.140099
							CHANNELS 3 Zrotation Yrotation Xrotation
							JOINT RightHand
							{
								OFFSET -25.529810 0.777228 -0.555919
								CHANNELS 3 Zrotation Yrotation Xrotation
								End Site
								{
									OFFSET 0.000000 0.000000 0.000000
								}
							}
						}
					}
				}
			}
		}
	}
}
MOTION
Frames: 18
Frame Time: 0.033333
39.850685 -2.286834 91.994705 -137.443625 -28.992891 90.728493 4.152179 4.739020 -0.797716 -11.673863 -3.143995 47.071256 -10.013259 5.900706 -3.346439 nan nan nan -22.851856 1.008710 -37.139654 -6.177200 9.763460 42.310262 -6.498055 -9.939963 -14.036034 nan nan nan 15.152812 -11.653072 6.246208 3.433298 -6.894751 7.711135 1.474177 0.160868 -8.355859 -10.049794 -8.227170 6.316832 -1.387640 10.565223 -9.386953 -29.281487 -24.178909 3.803533 -32.428087 -19.794475 8.710452 57.016592 -63.279171 -47.713025 41.174523 -28.562918 -35.895232 5.574124 12.663030 -2.331625 10.250955 0.255203 -14.791702 -14.979962 20.871493 -34.872080 -8.376997 17.257561 -20.186109 
40.514267 -2.794028 91.793915 -134.934007 -27.744453 90.557447 4.280158 4.746144 -0.593292 -11.822925 -3.420992 47.011048 -10.187861 5.205152 -3.425532 nan nan nan -22.274595 1.289038 -37.607889 -5.817294 9.298210 42.773517 -6.083453 -9.505490 -13.618370 nan nan nan 14.795818 -11.427253 6.289226 3.225999 -6.557314 7.932602 1.359605 0.052572 -8.592604 -9.770530 -8.948935 6.055500 -0.822819 9.564625 -8.801972 -29.233653 -24.939403 3.585829 -33.509652 -21.215221 10.094578 57.100418 -64.163535 -46.925348 39.841842 -29.716581 -34.388414 5.122812 12.731577 -2.636536 9.904116 0.253356 -14.545265 -15.578554 21.805912 -35.021917 -8.190728 17.693050 -20.315285 
41.222206 -3.273768 91.626457 -132.242435 -26.565547 90.203774 4.312213 4.466035 -0.185347 -12.096261 -3.816508 46.461834 -10.675136 4.551366 -3.366298 nan nan nan -21.893271 1.410123 -37.710518 -5.110595 8.970201 43.014938 -5.992306 -8.763364 -13.303873 nan nan nan 14.257773 -11.356656 6.616981 3.039782 -6.442954 7.725481 1.294254 0.035250 -8.475206 -9.583194 -9.770546 5.983753 -0.081270 8.768267 -8.329173 -29.112714 -25.705786 3.423087 -34.503602 -22.559646 11.405991 57.269930 -65.213695 -46.191752 39.117669 -30.699893 -33.423570 4.673837 12.896598 -3.154581 9.555792 0.342008 -14.377424 -16.208048 22.861970 -35.263664 -7.924930 18.292631 -20.184468 
41.935970 -3.723228 91.512260 -129.545876 -25.450764 89.734310 4.191655 3.983186 0.502402 -12.509687 -4.398668 45.378495 -11.315514 3.929757 -3.244926 nan nan nan -21.588198 1.373019 -37.514885 -4.485039 8.608814 42.850973 -6.045650 -8.199124 -12.999009 nan nan nan 13.671848 -11.234229 6.957984 2.844924 -6.411918 8.100853 1.268041 -0.020804 -8.795033 -9.420543 -10.639198 6.138464 0.604949 8.025185 -7.964382 -29.101028 -26.580084 3.457994 -35.349576 -23.797135 12.688591 57.875565 -66.408081 -46.253234 38.485598 -31.358103 -32.434547 4.071679 13.183175 -3.687494 9.293455 0.288708 -14.216185 -16.995579 24.137237 -35.778034 -7.739471 18.969456 -20.029795 
42.613438 -4.167078 91.427856 -126.868645 -24.436254 89.349243 3.806916 3.480621 1.319375 -12.833341 -5.224364 43.738110 -11.885719 3.302026 -3.386230 nan nan nan -21.399017 1.199375 -37.185014 -4.023282 8.233605 42.265591 -5.964346 -7.837576 -12.619387 nan nan nan 13.164875 -10.945574 7.122774 2.668689 -6.397029 8.753723 1.164913 -0.204307 -9.301205 -9.247522 -11.418811 6.167942 1.198238 7.355573 -7.418114 -28.892291 -27.296660 3.545310 -36.524954 -25.271976 14.080187 58.676167 -67.459220 -46.567055 37.199125 -31.707984 -31.499536 3.328660 13.247920 -4.097933 9.041053 0.386779 -14.053970 -17.946331 25.594217 -36.288490 -7.531666 19.485235 -20.006420 
43.280857 -4.601935 91.357643 -124.216796 -23.518210 89.175259 3.212904 3.093841 2.092294 -12.949732 -6.183735 41.653926 -12.597855 2.722425 -3.555856 nan nan nan -21.334277 0.943443 -36.962496 -3.671197 7.720465 41.595021 -5.780417 -7.416572 -12.275542 nan nan nan 12.740967 -10.739188 7.386781 2.468300 -6.352506 8.547846 1.018842 -0.396291 -9.362831 -8.990365 -11.916893 6.175925 1.641467 6.585081 -6.832288 -28.115835 -27.597721 3.334154 -38.619441 -26.727159 15.739621 59.378036 -68.235760 -46.573453 35.136481 -32.454913 -30.110594 2.455446 13.112904 -4.389317 8.911506 0.869451 -14.075770 -19.004360 27.096517 -36.716288 -7.113679 19.978173 -19.836618 
43.958305 -4.979421 91.322517 -121.704043 -22.512617 89.174299 2.719428 2.944614 2.851750 -12.929928 -7.159879 39.372897 -13.402645 2.637046 -3.776550 nan nan nan -21.070460 0.811807 -36.904633 -3.403440 7.174146 41.007026 -5.664309 -7.168660 -11.936785 nan nan nan 12.428134 -10.652189 7.709684 2.231275 -6.225216 7.871562 0.957238 -0.477303 -9.271430 -8.937227 -12.510691 6.696742 2.212360 6.023396 -6.507434 -28.133754 -28.036820 3.363167 -39.613385 -27.637803 17.128128 59.359156 -69.405148 -45.850980 34.475006 -33.266202 -29.134549 1.710596 13.299882 -4.644503 8.497621 1.003438 -14.200031 -19.852269 28.914107 -37.161315 -7.233510 20.488038 -20.068565 
44.641361 -5.323424 91.298920 -119.261892 -21.421310 89.207822 2.404541 3.152776 3.578344 -12.335038 -7.459099 37.230089 -13.947073 3.461821 -4.980786 nan nan nan -20.665576 0.809255 -36.933434 -3.311808 6.540311 40.600328 -5.312105 -6.890191 -11.687543 nan nan nan 12.106465 -10.499148 7.834246 2.112777 -6.000312 7.465032 0.987910 -0.547849 -9.141720 -8.948086 -13.238480 7.347911 2.659815 5.429484 -6.467127 -28.179601 -28.467563 3.338326 -40.772113 -28.611415 18.340730 58.449891 -70.557256 -44.275737 34.273364 -34.020530 -29.173193 0.903882 13.443196 -5.008580 7.834513 1.093085 -14.602088 -20.374251 30.774376 -37.148071 -7.678327 20.960892 -20.561495 
45.331501 -5.666642 91.243164 -116.790793 -20.249572 89.360274 2.360349 3.872725 4.020410 -10.698448 -6.219832 35.337910 -13.710050 5.252136 -7.701987 nan nan nan -20.228091 0.849523 -37.121785 -3.367425 5.874894 40.402680 -4.645839 -6.583396 -11.499824 nan nan nan 11.887612 -10.296040 7.685808 2.076728 -5.801096 7.407436 0.954844 -0.626935 -9.152775 -8.628782 -13.966325 7.706608 2.896248 4.683125 -6.311096 -27.820293 -28.861445 3.215448 -42.302457 -29.787019 19.364552 58.088974 -71.409543 -42.823221 32.420383 -34.928612 -28.707096 -0.077941 13.405614 -5.336031 7.241283 1.357401 -15.095228 -21.051599 32.423205 -36.915899 -7.480199 21.395682 -20.920942 
46.045143 -6.005137 91.171196 -114.404029 -19.085956 89.662396 2.439661 4.872324 4.190338 -8.247632 -3.554177 33.564243 -12.896552 7.612514 -11.205987 nan nan nan -19.773134 0.848058 -37.520656 -3.538413 5.262861 40.334463 -3.882741 -6.369656 -11.087777 nan nan nan 11.652991 -10.022725 7.556586 2.172734 -5.581345 7.468528 0.912367 -0.761218 -9.344298 -8.162205 -14.712402 7.782473 3.103371 3.994686 -6.051640 -26.992446 -29.038152 3.012841 -44.565294 -31.090732 20.859355 58.182133 -72.453466 -42.826161 30.547413 -35.204672 -28.146037 -1.141099 13.169412 -5.654223 6.549023 2.091967 -15.593302 -21.980376 33.691637 -37.252826 -6.697742 21.759681 -20.505809 
46.760929 -6.327415 91.122025 -112.046560 -17.959946 89.930465 2.717778 6.138739 4.274853 -5.687943 -0.303438 32.019308 -12.289287 9.428794 -14.043156 nan nan nan -19.317837 0.739752 -37.799892 -3.822205 4.635515 40.137094 -3.193089 -6.314260 -10.551012 nan nan nan 11.394676 -9.887531 7.439022 2.256794 -5.456499 7.823925 0.899094 -0.589268 -9.720033 -7.870779 -15.356121 8.165031 3.497297 3.233482 -6.243056 -26.373321 -29.469112 2.950822 -46.643893 -32.126915 22.244499 59.084490 -73.357827 -43.570971 27.406958 -35.828264 -26.866670 -2.356810 13.050550 -6.054040 6.136161 2.628646 -15.806258 -23.446261 34.736871 -37.944152 -5.952078 22.212421 -20.639838 
47.470131 -6.614629 91.056908 -109.670782 -16.889291 90.091730 3.301399 7.624211 4.415518 -3.462787 3.065851 30.576037 -11.748308 10.268707 -15.760134 nan nan nan -18.872473 0.495469 -37.854847 -4.191273 4.004917 39.781869 -2.605468 -6.274450 -10.080537 nan nan nan 11.183434 -9.985832 7.516647 2.154847 -5.455187 7.974403 0.850855 -0.193243 -9.893736 -7.339481 -15.779886 8.402568 3.854354 2.211475 -6.419496 -25.712246 -30.119636 2.653121 -48.261737 -32.755859 23.526722 61.215113 -74.251554 -45.215615 26.994925 -36.470754 -25.945420 -3.533117 13.176696 -6.501814 5.689862 2.764148 -15.757769 -24.805862 35.886201 -38.768974 -6.092593 22.553212 -21.641728 
48.179600 -6.877519 90.950760 -107.432317 -15.935441 90.256545 3.974324 9.107110 4.622360 -1.875617 5.937222 28.914984 -10.865918 10.863113 -16.733507 nan nan nan -18.546447 0.254116 -37.950800 -4.470901 3.437773 39.486276 -2.061754 -6.172903 -9.708888 nan nan nan 10.976600 -9.922953 7.924494 2.039433 -5.343880 7.849444 0.767781 -0.126897 -10.047922 -6.429401 -16.136363 8.170309 3.901679 0.867967 -6.327309 -24.684535 -30.573922 1.912156 -49.896473 -33.274411 25.002395 63.574173 -75.099062 -47.099748 25.279632 -36.750854 -25.311291 -4.706670 13.300723 -6.965762 5.204632 2.836902 -15.259601 -26.404559 36.916920 -39.471376 -6.056092 22.560690 -22.537351 
48.909855 -7.127951 90.831787 -105.213978 -15.187783 90.427742 4.489048 10.217035 4.725395 -1.001928 7.938210 26.990989 -9.878431 11.695872 -17.268755 nan nan nan -18.443801 -0.093868 -38.121662 -4.595087 2.979577 39.231774 -1.529736 -5.952927 -9.266343 nan nan nan 10.544763 -9.571305 8.627742 1.974873 -5.068768 7.257808 0.792987 -0.356600 -9.917899 -5.472569 -16.780722 7.734652 4.059252 -0.306446 -6.143840 -23.474100 -31.116738 1.053761 -51.808520 -33.960341 26.618943 65.147084 -75.389934 -48.089515 26.698336 -36.641156 -26.413057 -5.886849 13.286142 -7.671178 4.737093 2.854610 -14.891186 -27.763085 37.821375 -40.213604 -6.438160 22.828860 -23.317087 
49.663326 -7.346685 90.741852 -102.892213 -14.560496 90.507744 4.938225 11.017486 4.629436 -0.592037 8.986470 25.007544 -9.143793 12.303341 -17.791407 nan nan nan -18.477005 -0.643650 -38.122014 -4.549299 2.602221 38.794861 -0.970459 -5.757222 -8.735458 nan nan nan 10.044258 -9.276934 9.515653 1.834549 -4.919575 6.454309 0.804661 -0.452252 -9.639585 -4.643476 -17.541975 7.408650 4.571274 -1.206388 -5.955399 -22.425762 -31.714676 0.305223 -53.302503 -34.780506 27.977766 66.038538 -75.767489 -48.642960 27.414281 -36.791987 -27.779125 -7.007425 13.286238 -8.369448 4.405420 2.720182 -14.940185 -29.097210 38.619032 -41.178844 -6.145607 23.163408 -24.046645 
50.459747 -7.480623 90.677505 -100.571775 -13.986392 90.569778 5.504017 11.736140 4.252813 -0.433505 9.256016 22.867092 -8.276514 12.185914 -18.149568 nan nan nan -18.541380 -1.171636 -38.032289 -4.283671 2.509205 38.289738 -0.204828 -5.576038 -8.504775 nan nan nan 9.516122 -9.167047 10.737937 1.579398 -4.852434 4.980003 0.809088 -0.338344 -8.947396 -3.815796 -18.414588 6.977984 5.277229 -2.070826 -5.612629 -21.468173 -32.055872 -0.372111 -54.395965 -35.792764 28.962888 66.724028 -76.753233 -48.754976 27.106826 -36.818334 -28.096300 -7.941041 13.172610 -8.751693 4.156018 2.658071 -15.488157 -30.488319 39.391611 -41.933645 -5.744955 23.180916 -24.504071 
51.298645 -7.499209 90.633888 -98.370677 -13.512652 90.755833 6.193553 12.298966 3.547190 -0.788751 8.772245 20.837009 -8.325395 11.774405 -17.981557 nan nan nan -18.687171 -1.505043 -38.113938 -3.874995 2.631775 37.915389 0.604604 -5.322493 -8.569083 nan nan nan 8.791388 -8.925708 11.979193 1.398389 -4.708315 3.606459 0.889126 -0.263285 -8.438046 -2.982606 -19.316999 6.452270 5.947752 -3.128353 -5.346259 -20.528490 -32.129492 -0.941435 -55.545497 -36.950562 30.046345 67.980387 -77.748310 -49.080187 26.596564 -36.610033 -28.304103 -8.753901 12.841069 -8.887479 4.181910 2.630064 -15.877526 -32.388692 40.130442 -42.835053 -6.769973 22.895880 -25.481068 
52.123775 -7.430828 90.631927 -96.114245 -13.062048 90.829262 7.106582 12.498439 2.735290 -1.580022 7.549525 19.134473 -8.316231 11.217856 -17.548158 nan nan nan -18.842197 -1.871197 -38.053574 -3.481922 2.723770 37.613922 1.130800 -5.019934 -8.474210 nan nan nan 7.927308 -8.459678 13.146918 1.414353 -4.504601 3.169298 1.097628 -0.440440 -8.699032 -1.976884 -20.112748 5.711405 6.244875 -4.503697 -5.023352 -19.618293 -32.252882 -1.450397 -56.820633 -38.024592 31.419404 69.775633 -78.225695 -50.239316 26.327213 -36.487533 -28.988281 -9.559713 12.560331 -9.100584 4.263211 2.447355 -15.773601 -34.489145 40.481386 -44.279467 -7.952964 22.716672 -27.015794 
